<?xml version="1.0"?><svg width="1600" height="1200" xmlns="http://www.w3.org/2000/svg">
 <title>johnnys image</title>
 <metadata id="metadata18591">image/svg+xml</metadata>
 <g>
  <title>Layer 1</title>
  <g id="layer1" transform="rotate(13.06153678894043 787.1387329101566,597.9909057617185) ">
   <path fill="#3f3f3f" fill-rule="evenodd" class="fil1" d="m787.136475,4.548824c347.742065,0 631.365601,266.584141 631.365601,593.443791c0,326.856018 -283.623535,593.440369 -631.365601,593.440369c-347.742004,0 -631.361023,-266.584351 -631.361023,-593.440369c0,-326.85965 283.619019,-593.443791 631.361023,-593.443791zm-14.947388,600.594731c20.003662,0 38.489258,6.270569 53.358459,16.820251c-13.5401,-10.502258 -30.097778,-17.874268 -48.611572,-20.732056c-55.933044,-8.629272 -109.042786,27.20636 -118.228699,79.78418c-0.28595,1.647949 -0.520935,3.299866 -0.719543,4.947998c-53.308472,-19.388367 -87.02356,-72.100159 -77.418335,-127.093811l33.336792,-190.881287l229.772339,23.312347c4.627014,0.463959 9.037231,-4.474548 9.784851,-10.988098l0,0c0.752136,-6.509155 -2.44043,-12.224396 -7.067688,-12.688354l-228.378723,-23.164825l2.504883,-14.348816l229.868774,23.320862c4.631653,0.463928 9.041931,-4.47464 9.784851,-10.988068l0,0c0.752075,-6.509186 -2.435913,-12.219482 -7.067627,-12.688385l-228.47522,-23.177673l3.589233,-20.545197l228.885986,23.216888c4.627136,0.46814 9.03833,-4.47113 9.785034,-10.984558l0,0c0.752014,-6.508453 -2.440552,-12.223785 -7.067627,-12.691986l-227.497803,-23.078522l3.418518,-19.573868l230.75946,23.412094c4.631653,0.463928 9.041931,-4.475311 9.784912,-10.984512l0,0c0.756653,-6.512711 -2.435974,-12.223831 -7.06311,-12.691986l-229.370544,-23.264542l3.80603,-21.772324c27.897644,-159.741413 379.726929,-116.426941 349.961426,53.995392l-63.088257,361.25145c-6.680176,38.254639 -32.838684,69.155212 -67.361084,85.217346c0.18866,-12.141907 -2.085022,-23.945007 -6.42627,-34.911743c2.740051,8.021851 4.235229,16.573486 4.235229,25.432251c0,38.83197 -28.451172,71.597595 -66.765991,80.846558l0,295.39624c0,18.117188 -12.807007,32.933838 -28.464722,32.933838l-39.417297,0c-15.657532,0 -28.469116,-14.81665 -28.469116,-32.933838l0,-330.671387c-9.139832,-13.117188 -14.472778,-28.771301 -14.472778,-45.570984c0,-45.973328 39.883545,-83.460938 88.794556,-83.460938l0.000671,0l0,0.000061z" id="path18530"/>
  </g>
 </g>
</svg>